<svg xmlns="http://www.w3.org/2000/svg" viewBox="0 0 900 900">
  <defs>
    <linearGradient id="north" x1="0" x2="0" y1="0" y2="1">
      <stop offset="0" stop-color="#9bd0e8"/>
      <stop offset=".54" stop-color="#dce8e3"/>
      <stop offset="1" stop-color="#7f9d73"/>
    </linearGradient>
  </defs>
  <rect width="900" height="900" rx="56" fill="url(#north)"/>
  <path d="M-40 620 C120 510 220 580 350 470 C505 340 620 520 760 390 C825 330 880 365 945 330 L945 900 L-40 900 Z" fill="#6f8d7b" opacity=".78"/>
  <path d="M40 735 C210 690 350 775 520 715 C660 665 780 710 930 675 L930 900 L40 900 Z" fill="#55a6bf" opacity=".5"/>
  <g transform="translate(455 485)">
    <rect x="-100" y="-60" width="200" height="230" rx="44" fill="#7c5130" stroke="#4b311f" stroke-width="12"/>
    <circle cx="0" cy="-105" r="78" fill="#f2c28a" stroke="#4b311f" stroke-width="12"/>
    <path d="M-78 -145 C-30 -205 52 -198 84 -130 C32 -160 -24 -158 -78 -145 Z" fill="#2f2a24"/>
    <circle cx="-28" cy="-104" r="8" fill="#252018"/>
    <circle cx="30" cy="-104" r="8" fill="#252018"/>
    <path d="M-22 -68 Q2 -52 28 -70" fill="none" stroke="#4b311f" stroke-width="8" stroke-linecap="round"/>
    <path d="M-180 10 h100 M80 10 h100" stroke="#4b311f" stroke-width="18" stroke-linecap="round"/>
  </g>
  <g transform="translate(190 680)">
    <rect x="-62" y="-42" width="124" height="98" rx="16" fill="#b77a3b" stroke="#5b3b22" stroke-width="10"/>
    <path d="M-62 -8 h124 M0 -42 v98" stroke="#f0d48d" stroke-width="8"/>
  </g>
  <g transform="translate(710 675)">
    <rect x="-68" y="-50" width="136" height="106" rx="18" fill="#e3c079" stroke="#5b3b22" stroke-width="10"/>
    <path d="M-42 -16 h84 M-38 18 h76" stroke="#fff4c9" stroke-width="9" stroke-linecap="round"/>
  </g>
</svg>
