<svg xmlns="http://www.w3.org/2000/svg" width="800" height="520" viewBox="0 0 800 520" role="img"><defs>
    <linearGradient id="sky" x1="0" y1="0" x2="0" y2="1"><stop offset="0" stop-color="#9eddf0"/><stop offset="1" stop-color="#fff3bd"/></linearGradient>
    <linearGradient id="ground" x1="0" y1="0" x2="0" y2="1"><stop offset="0" stop-color="#8fd26b"/><stop offset="1" stop-color="#5caf64"/></linearGradient>
    <linearGradient id="sea" x1="0" y1="0" x2="0" y2="1"><stop offset="0" stop-color="#70cce4"/><stop offset="1" stop-color="#2f9fbd"/></linearGradient>
    <linearGradient id="wood" x1="0" y1="0" x2="1" y2="1"><stop offset="0" stop-color="#d59b54"/><stop offset="1" stop-color="#8d5a2f"/></linearGradient>
    <filter id="softShadow" x="-20%" y="-20%" width="140%" height="150%"><feDropShadow dx="0" dy="8" stdDeviation="5" flood-color="#2b4c35" flood-opacity=".22"/></filter>
    <style>
      .ink{stroke:#5b4228;stroke-width:8;stroke-linecap:round;stroke-linejoin:round}
      .thin{stroke:#5b4228;stroke-width:4;stroke-linecap:round;stroke-linejoin:round}
      .soft{stroke:#fff8cf;stroke-width:5;stroke-linecap:round;stroke-linejoin:round;opacity:.75}
      .accent{fill:#f0b85b}
    </style>
  </defs><rect width="800" height="520" fill="url(#sky)"/><circle cx="660" cy="82" r="40" fill="#ffe77b"/><circle cx="660" cy="82" r="64" fill="#ffe77b" opacity=".18"/>
    <g fill="#fffbe6" opacity=".86"><ellipse cx="160" cy="82" rx="66" ry="24"/><ellipse cx="208" cy="78" rx="48" ry="20"/><ellipse cx="610" cy="138" rx="54" ry="18"/></g><path d="M0 302 C120 288 210 322 338 306 C476 286 616 314 800 296 L800 520 L0 520 Z" fill="url(#sea)"/>
    <g fill="none" stroke="#e9fbff" stroke-width="7" stroke-linecap="round" opacity=".72">
      <path d="M44 365 C98 348 146 384 202 365"/><path d="M286 402 C336 386 386 420 444 402"/><path d="M548 356 C610 338 650 376 720 354"/>
    </g><g transform="translate(382 326) scale(0.82)" filter="url(#softShadow)">
    <path d="M-96 42 C-54 76 62 76 105 42 C73 102 -64 104 -108 42 Z" fill="url(#wood)" class="thin"/>
    <path d="M-82 42 H92" class="thin" fill="none"/>
    <path d="M-8 34 V-96" class="thin"/><path d="M2 -88 C50 -58 68 -4 16 22 Z" fill="#fff4c2" class="thin"/><path d="M-12 -76 C-58 -48 -66 -8 -18 20 Z" fill="#f2c75c" class="thin"/>
  </g><g fill="none" stroke="#fff8cf" stroke-width="12" stroke-linecap="round" opacity=".8"><path d="M90 142 C210 92 330 164 462 120"/><path d="M178 210 C330 152 494 226 650 174"/></g><rect x="18" y="18" width="764" height="484" rx="38" fill="none" stroke="#fff8cf" stroke-width="8" opacity=".5"/></svg>