<svg xmlns="http://www.w3.org/2000/svg" width="256" height="256" viewBox="0 0 256 256" role="img"><defs>
    <linearGradient id="sky" x1="0" y1="0" x2="0" y2="1"><stop offset="0" stop-color="#9eddf0"/><stop offset="1" stop-color="#fff3bd"/></linearGradient>
    <linearGradient id="ground" x1="0" y1="0" x2="0" y2="1"><stop offset="0" stop-color="#8fd26b"/><stop offset="1" stop-color="#5caf64"/></linearGradient>
    <linearGradient id="sea" x1="0" y1="0" x2="0" y2="1"><stop offset="0" stop-color="#70cce4"/><stop offset="1" stop-color="#2f9fbd"/></linearGradient>
    <linearGradient id="wood" x1="0" y1="0" x2="1" y2="1"><stop offset="0" stop-color="#d59b54"/><stop offset="1" stop-color="#8d5a2f"/></linearGradient>
    <filter id="softShadow" x="-20%" y="-20%" width="140%" height="150%"><feDropShadow dx="0" dy="8" stdDeviation="5" flood-color="#2b4c35" flood-opacity=".22"/></filter>
    <style>
      .ink{stroke:#5b4228;stroke-width:8;stroke-linecap:round;stroke-linejoin:round}
      .thin{stroke:#5b4228;stroke-width:4;stroke-linecap:round;stroke-linejoin:round}
      .soft{stroke:#fff8cf;stroke-width:5;stroke-linecap:round;stroke-linejoin:round;opacity:.75}
      .accent{fill:#f2a846}
    </style>
  </defs><rect width="256" height="256" fill="none"/><ellipse cx="128" cy="224" rx="80" ry="18" fill="#2c4730" opacity=".14"/><g class="thin" fill="#64aa54"><path d="M64 204 C28 142 90 98 64 46 C112 94 52 144 64 204Z" opacity="0.82"/><path d="M92 204 C56 142 118 98 92 46 C140 94 80 144 92 204Z" opacity="0.7799999999999999"/><path d="M122 204 C86 142 148 98 122 46 C170 94 110 144 122 204Z" opacity="0.74"/><path d="M150 204 C114 142 176 98 150 46 C198 94 138 144 150 204Z" opacity="0.7"/><path d="M180 204 C144 142 206 98 180 46 C228 94 168 144 180 204Z" opacity="0.6599999999999999"/></g><path d="M70 212 C104 178 142 154 186 116" class="ink" fill="none"/></svg>