<svg xmlns="http://www.w3.org/2000/svg" width="800" height="520" viewBox="0 0 800 520" role="img"><defs>
    <linearGradient id="sky" x1="0" y1="0" x2="0" y2="1"><stop offset="0" stop-color="#9eddf0"/><stop offset="1" stop-color="#fff3bd"/></linearGradient>
    <linearGradient id="ground" x1="0" y1="0" x2="0" y2="1"><stop offset="0" stop-color="#8fd26b"/><stop offset="1" stop-color="#5caf64"/></linearGradient>
    <linearGradient id="sea" x1="0" y1="0" x2="0" y2="1"><stop offset="0" stop-color="#70cce4"/><stop offset="1" stop-color="#2f9fbd"/></linearGradient>
    <linearGradient id="wood" x1="0" y1="0" x2="1" y2="1"><stop offset="0" stop-color="#d59b54"/><stop offset="1" stop-color="#8d5a2f"/></linearGradient>
    <filter id="softShadow" x="-20%" y="-20%" width="140%" height="150%"><feDropShadow dx="0" dy="8" stdDeviation="5" flood-color="#2b4c35" flood-opacity=".22"/></filter>
    <style>
      .ink{stroke:#5b4228;stroke-width:8;stroke-linecap:round;stroke-linejoin:round}
      .thin{stroke:#5b4228;stroke-width:4;stroke-linecap:round;stroke-linejoin:round}
      .soft{stroke:#fff8cf;stroke-width:5;stroke-linecap:round;stroke-linejoin:round;opacity:.75}
      .accent{fill:#f0b85b}
    </style>
  </defs><rect width="800" height="520" fill="url(#sky)"/><circle cx="660" cy="82" r="40" fill="#ffe77b"/><circle cx="660" cy="82" r="64" fill="#ffe77b" opacity=".18"/>
    <g fill="#fffbe6" opacity=".86"><ellipse cx="160" cy="82" rx="66" ry="24"/><ellipse cx="208" cy="78" rx="48" ry="20"/><ellipse cx="610" cy="138" rx="54" ry="18"/></g><path d="M0 312 C120 238 198 268 304 308 C420 228 566 252 800 302 L800 520 L0 520 Z" fill="url(#ground)"/>
    <path d="M-40 350 C150 285 280 330 438 350 C552 292 676 318 840 340" class="soft" fill="none"/><g transform="translate(188 342) scale(0.48)" filter="url(#softShadow)">
    <path d="M-94 18 H76 L48 72 H-112 Z" fill="url(#wood)" class="thin"/>
    <path d="M-72 18 V-42 H38 L66 18" fill="#c98745" class="thin"/>
    <circle cx="-58" cy="84" r="28" fill="#74472d" class="thin"/><circle cx="34" cy="84" r="28" fill="#74472d" class="thin"/>
    <circle cx="-58" cy="84" r="10" fill="#e9c57a"/><circle cx="34" cy="84" r="10" fill="#e9c57a"/>
    <path d="M78 18 L142 -10" class="thin"/>
  </g><g filter="url(#softShadow)"><circle cx="554" cy="250" r="48" fill="#d49c66" class="thin"/><path d="M490 330 C500 272 610 270 626 330 L626 408 H490Z" fill="#7d6a4e" class="thin"/><path d="M514 222 C540 190 592 196 608 228" fill="none" class="ink"/></g><rect x="18" y="18" width="764" height="484" rx="38" fill="none" stroke="#fff8cf" stroke-width="8" opacity=".5"/></svg>