<svg xmlns="http://www.w3.org/2000/svg" width="256" height="256" viewBox="0 0 256 256" role="img"><defs>
    <linearGradient id="sky" x1="0" y1="0" x2="0" y2="1"><stop offset="0" stop-color="#9eddf0"/><stop offset="1" stop-color="#fff3bd"/></linearGradient>
    <linearGradient id="ground" x1="0" y1="0" x2="0" y2="1"><stop offset="0" stop-color="#8fd26b"/><stop offset="1" stop-color="#5caf64"/></linearGradient>
    <linearGradient id="sea" x1="0" y1="0" x2="0" y2="1"><stop offset="0" stop-color="#70cce4"/><stop offset="1" stop-color="#2f9fbd"/></linearGradient>
    <linearGradient id="wood" x1="0" y1="0" x2="1" y2="1"><stop offset="0" stop-color="#d59b54"/><stop offset="1" stop-color="#8d5a2f"/></linearGradient>
    <filter id="softShadow" x="-20%" y="-20%" width="140%" height="150%"><feDropShadow dx="0" dy="8" stdDeviation="5" flood-color="#2b4c35" flood-opacity=".22"/></filter>
    <style>
      .ink{stroke:#5b4228;stroke-width:8;stroke-linecap:round;stroke-linejoin:round}
      .thin{stroke:#5b4228;stroke-width:4;stroke-linecap:round;stroke-linejoin:round}
      .soft{stroke:#fff8cf;stroke-width:5;stroke-linecap:round;stroke-linejoin:round;opacity:.75}
      .accent{fill:#f2a846}
    </style>
  </defs><rect width="256" height="256" fill="none"/><ellipse cx="128" cy="224" rx="80" ry="18" fill="#2c4730" opacity=".14"/><path d="M74 42 h104 c18 0 30 12 30 30 v112 c0 18-12 30-30 30H74c-18 0-30-12-30-30V72c0-18 12-30 30-30Z" fill="#fff7d8" class="ink"/><path d="M78 84 h92 M78 118 h86 M78 152 h70" class="thin" opacity=".56"/><path d="M178 42 c-22 12-26 34-10 54" fill="none" class="thin"/></svg>