<svg xmlns="http://www.w3.org/2000/svg" viewBox="0 0 64 64" role="img" aria-label="map">
  <path fill="#f3e2b5" stroke="#271b16" stroke-width="3" d="M9 14 23 9l18 6 14-5v40l-14 5-18-6-14 5z"/>
  <path fill="#6fa67f" d="M17 18c8-4 14 1 20 4 5 2 9 1 13-1v18c-7 2-11 0-16-3-7-3-10-2-17 3z"/>
  <path fill="none" stroke="#246b7c" stroke-width="3" stroke-linecap="round" stroke-dasharray="5 4" d="M20 42c5-9 10-14 20-20"/>
  <circle cx="22" cy="40" r="4" fill="#f1c865" stroke="#271b16" stroke-width="2"/>
  <circle cx="41" cy="21" r="4" fill="#d45f48" stroke="#271b16" stroke-width="2"/>
  <path fill="none" stroke="#271b16" stroke-width="2" d="M23 9v40M41 15v40"/>
</svg>
