<svg xmlns="http://www.w3.org/2000/svg" viewBox="0 0 96 72" role="img" aria-label="winter road">
  <defs>
    <linearGradient id="sky" x1="0" x2="0" y1="0" y2="1"><stop stop-color="#c9dce8"/><stop offset=".62" stop-color="#eef7f7"/><stop offset="1" stop-color="#d7e6e8"/></linearGradient>
  </defs>
  <rect width="96" height="72" rx="10" fill="url(#sky)"/>
  <path fill="#b9ccd1" d="M0 48c13-9 26-12 38-7 14 5 26 3 40-8 8-6 14-4 18-1v40H0z"/>
  <path fill="#eef7f7" d="M0 56c17-8 31-8 44-3 15 6 31 5 52-7v26H0z"/>
  <path fill="#513b2a" d="M20 36h38v19H20z"/>
  <path fill="#6f4a2a" d="M16 31h46l-5 9H22z"/>
  <path fill="#e8eef0" d="M16 31h46l-3 4H19z"/>
  <path fill="#3e3028" d="M27 41h9v14h-9zM44 41h8v14h-8z"/>
  <path fill="#6b4428" d="M66 50h18v6H66z"/>
  <circle cx="69" cy="58" r="4" fill="#263238"/><circle cx="82" cy="58" r="4" fill="#263238"/>
  <circle cx="18" cy="16" r="2" fill="#fff"/><circle cx="47" cy="12" r="2" fill="#fff"/><circle cx="77" cy="21" r="2" fill="#fff"/>
  <path stroke="#9db7bd" stroke-width="2" d="M7 63c20-4 37-4 57 0" fill="none"/>
</svg>
