<svg xmlns="http://www.w3.org/2000/svg" width="800" height="520" viewBox="0 0 800 520" role="img"><defs>
    <linearGradient id="sky" x1="0" y1="0" x2="0" y2="1"><stop offset="0" stop-color="#9eddf0"/><stop offset="1" stop-color="#fff3bd"/></linearGradient>
    <linearGradient id="ground" x1="0" y1="0" x2="0" y2="1"><stop offset="0" stop-color="#8fd26b"/><stop offset="1" stop-color="#5caf64"/></linearGradient>
    <linearGradient id="sea" x1="0" y1="0" x2="0" y2="1"><stop offset="0" stop-color="#70cce4"/><stop offset="1" stop-color="#2f9fbd"/></linearGradient>
    <linearGradient id="wood" x1="0" y1="0" x2="1" y2="1"><stop offset="0" stop-color="#d59b54"/><stop offset="1" stop-color="#8d5a2f"/></linearGradient>
    <filter id="softShadow" x="-20%" y="-20%" width="140%" height="150%"><feDropShadow dx="0" dy="8" stdDeviation="5" flood-color="#2b4c35" flood-opacity=".22"/></filter>
    <style>
      .ink{stroke:#5b4228;stroke-width:8;stroke-linecap:round;stroke-linejoin:round}
      .thin{stroke:#5b4228;stroke-width:4;stroke-linecap:round;stroke-linejoin:round}
      .soft{stroke:#fff8cf;stroke-width:5;stroke-linecap:round;stroke-linejoin:round;opacity:.75}
      .accent{fill:#6aa36a}
    </style>
  </defs><rect width="800" height="520" fill="url(#sky)"/><circle cx="660" cy="82" r="40" fill="#ffe77b"/><circle cx="660" cy="82" r="64" fill="#ffe77b" opacity=".18"/>
    <g fill="#fffbe6" opacity=".86"><ellipse cx="160" cy="82" rx="66" ry="24"/><ellipse cx="208" cy="78" rx="48" ry="20"/><ellipse cx="610" cy="138" rx="54" ry="18"/></g><path d="M0 312 C120 238 198 268 304 308 C420 228 566 252 800 302 L800 520 L0 520 Z" fill="url(#ground)"/>
    <path d="M-40 350 C150 285 280 330 438 350 C552 292 676 318 840 340" class="soft" fill="none"/><g filter="url(#softShadow)">
    <path d="M286 322 h336 v92 h-336z" fill="#d7a35b" class="thin"/>
    <path d="M258 322 h392 l-46 -66 h-300z" fill="#62a36a" class="ink"/>
    <path d="M372 414 v-68 h64 v68" fill="#7d4c34" class="thin"/>
    <path d="M482 414 v-68 h64 v68" fill="#7d4c34" class="thin"/>
    <path d="M324 280 h260" class="soft"/>
  </g><g filter="url(#softShadow)">
    <path d="M92 318 h166 v92 h-166z" fill="#eed59a" class="thin"/>
    <path d="M82 318 h186 l-18 -54 h-150z" fill="#f4c55f" class="thin"/>
    <path d="M120 410 v-54 h62 v54" fill="#9a6135" class="thin"/>
    <path d="M208 410 v-45 h38" fill="none" class="thin"/>
  </g><rect x="18" y="18" width="764" height="484" rx="38" fill="none" stroke="#fff8cf" stroke-width="8" opacity=".55"/></svg>