<svg xmlns="http://www.w3.org/2000/svg" width="256" height="256" viewBox="0 0 256 256" role="img"><defs>
    <linearGradient id="sky" x1="0" y1="0" x2="0" y2="1"><stop offset="0" stop-color="#9eddf0"/><stop offset="1" stop-color="#fff3bd"/></linearGradient>
    <linearGradient id="ground" x1="0" y1="0" x2="0" y2="1"><stop offset="0" stop-color="#8fd26b"/><stop offset="1" stop-color="#5caf64"/></linearGradient>
    <linearGradient id="sea" x1="0" y1="0" x2="0" y2="1"><stop offset="0" stop-color="#70cce4"/><stop offset="1" stop-color="#2f9fbd"/></linearGradient>
    <linearGradient id="wood" x1="0" y1="0" x2="1" y2="1"><stop offset="0" stop-color="#d59b54"/><stop offset="1" stop-color="#8d5a2f"/></linearGradient>
    <filter id="softShadow" x="-20%" y="-20%" width="140%" height="150%"><feDropShadow dx="0" dy="8" stdDeviation="5" flood-color="#2b4c35" flood-opacity=".22"/></filter>
    <style>
      .ink{stroke:#5b4228;stroke-width:8;stroke-linecap:round;stroke-linejoin:round}
      .thin{stroke:#5b4228;stroke-width:4;stroke-linecap:round;stroke-linejoin:round}
      .soft{stroke:#fff8cf;stroke-width:5;stroke-linecap:round;stroke-linejoin:round;opacity:.75}
      .accent{fill:#f2a846}
    </style>
  </defs><rect width="256" height="256" fill="none"/><ellipse cx="128" cy="224" rx="80" ry="18" fill="#2c4730" opacity=".14"/><path d="M62 72 h132 v120 c0 22-18 40-40 40H102c-22 0-40-18-40-40Z" fill="#e9c58a" class="ink"/><path d="M52 78 h154 l-18-40H70z" fill="#b98348" class="ink"/><g fill="#fff6d6"><ellipse cx="92" cy="122" rx="12" ry="19" transform="rotate(-18 92 122)"/><ellipse cx="116" cy="137" rx="12" ry="19" transform="rotate(-18 116 137)"/><ellipse cx="140" cy="152" rx="12" ry="19" transform="rotate(-18 140 152)"/><ellipse cx="164" cy="167" rx="12" ry="19" transform="rotate(-18 164 167)"/></g></svg>