<svg xmlns="http://www.w3.org/2000/svg" width="512" height="512" viewBox="0 0 512 512">
  <defs>
    <linearGradient id="bg" x1="0" x2="0" y1="0" y2="1">
      <stop offset="0" stop-color="#8bd6d0"/>
      <stop offset=".58" stop-color="#dff5cf"/>
      <stop offset="1" stop-color="#8dcb72"/>
    </linearGradient>
    <linearGradient id="coin" x1="0" x2="1" y1="0" y2="1">
      <stop offset="0" stop-color="#ffe777"/>
      <stop offset="1" stop-color="#f3a342"/>
    </linearGradient>
  </defs>
  <rect width="512" height="512" rx="112" fill="url(#bg)"/>
  <circle cx="255" cy="252" r="188" fill="#fffbe5" opacity=".72"/>
  <path d="M118 345c58-54 89-121 99-197 6-48 73-49 80-1 10 75 41 145 97 198" fill="none" stroke="#b77a37" stroke-width="34" stroke-linecap="round" stroke-linejoin="round"/>
  <path d="M181 302h154c23 0 42 19 42 42v15H139v-15c0-23 19-42 42-42Z" fill="#c78b47" stroke="#70451f" stroke-width="12" stroke-linejoin="round"/>
  <circle cx="193" cy="369" r="31" fill="#6b4729" stroke="#fff6d9" stroke-width="12"/>
  <circle cx="322" cy="369" r="31" fill="#6b4729" stroke="#fff6d9" stroke-width="12"/>
  <circle cx="366" cy="150" r="56" fill="url(#coin)" stroke="#fff6d9" stroke-width="12"/>
  <text x="366" y="167" text-anchor="middle" font-family="system-ui, sans-serif" font-size="52" font-weight="900" fill="#5a3712">냥</text>
  <path d="M112 126c38-44 88-65 148-65 41 0 78 10 110 30" fill="none" stroke="#fff6d9" stroke-width="18" stroke-linecap="round" opacity=".8"/>
</svg>
